<?xml version="1.0" standalone="no"?>
<!DOCTYPE svg PUBLIC "-//W3C//DTD SVG 20010904//EN"
 "http://www.w3.org/TR/2001/REC-SVG-20010904/DTD/svg10.dtd">
<svg version="1.0" xmlns="http://www.w3.org/2000/svg"
 width="1611.000000pt" height="1150.000000pt" viewBox="0 0 1611.000000 1150.000000"
 preserveAspectRatio="xMidYMid meet">
<metadata>
Created by potrace 1.16, written by Peter Selinger 2001-2019
</metadata>
<g transform="translate(0.000000,1150.000000) scale(0.100000,-0.100000)"
fill="#000000" stroke="none">
<path d="M0 5750 l0 -5750 8055 0 8055 0 0 5750 0 5750 -8055 0 -8055 0 0
-5750z m11186 1379 c134 -66 196 -220 147 -365 -23 -67 -110 -154 -177 -177
-222 -75 -434 109 -387 335 21 101 108 198 205 228 52 16 157 6 212 -21z
m-6257 -276 c353 -371 542 -834 550 -1352 2 -113 0 -129 -15 -135 -9 -4 -105
-2 -213 3 -108 6 -302 15 -432 21 -265 13 -266 13 -278 26 -5 5 -11 68 -14
139 -5 137 -27 228 -84 355 -37 81 -121 206 -187 277 -32 35 -56 67 -54 72 1
5 70 81 153 168 341 361 479 503 489 503 6 0 44 -35 85 -77z m1811 -773 l0
-770 315 0 315 0 -2 -227 -3 -228 -575 0 -575 0 -3 994 c-1 587 2 997 7 1000
5 3 124 5 265 3 l256 -3 0 -769z m3230 0 l0 -770 315 0 315 0 0 -230 0 -230
-575 0 -575 0 0 1000 0 1000 260 0 260 0 0 -770z m-1607 395 c86 -18 179 -64
256 -126 l61 -49 0 80 0 80 243 -2 242 -3 0 -800 0 -800 -245 0 -245 0 -3 68
c-2 37 -5 67 -8 67 -3 0 -24 -15 -47 -34 -209 -169 -553 -189 -804 -45 -117
67 -235 203 -290 334 -53 125 -68 210 -68 390 0 184 12 250 72 382 85 188 251
351 433 423 121 48 278 62 403 35z m4027 -10 c75 -23 167 -75 228 -130 l51
-46 3 83 3 83 233 3 232 2 0 -757 c0 -705 -2 -764 -19 -843 -61 -276 -250
-462 -551 -542 -72 -19 -110 -22 -250 -22 -228 0 -363 35 -513 133 -146 96
-238 227 -272 389 l-7 32 275 0 274 0 32 -40 c54 -68 99 -85 221 -85 94 1 112
4 168 29 71 33 126 87 142 143 6 21 10 71 8 112 l-3 74 -31 -26 c-47 -40 -171
-103 -248 -126 -87 -27 -252 -29 -341 -6 -203 54 -365 200 -458 412 -96 217
-86 531 24 759 65 134 187 263 304 321 46 23 156 60 200 67 58 9 241 -3 295
-19z m1849 14 c83 -13 188 -62 274 -127 l67 -51 0 79 0 80 240 0 240 0 0 -805
0 -805 -245 0 -245 0 0 70 c0 39 -2 70 -5 70 -3 0 -29 -18 -58 -39 -146 -109
-321 -154 -514 -132 -384 45 -627 336 -647 777 -25 541 402 963 893 883z
m-2944 -824 l0 -800 -242 -3 -243 -2 0 805 0 805 243 -2 242 -3 0 -800z
m-8298 677 l-26 -27 77 -2 c42 0 95 -7 117 -15 38 -12 40 -16 47 -63 3 -28 7
-71 7 -97 1 -67 18 -60 26 10 14 130 17 136 60 150 22 8 73 14 112 15 40 1 73
4 73 6 0 3 -10 15 -22 28 -12 13 -17 23 -12 23 17 0 147 -71 188 -102 76 -58
163 -161 106 -126 -29 18 -33 5 -15 -47 8 -26 18 -74 22 -106 l6 -59 -98 -45
c-54 -25 -96 -47 -94 -50 2 -2 48 6 103 18 l98 21 19 -25 c27 -35 68 -121 75
-159 l7 -33 18 24 19 24 0 -40 c0 -80 -57 -242 -107 -304 l-20 -25 5 33 5 33
-53 -38 c-29 -21 -75 -46 -103 -55 l-49 -17 -71 74 c-38 41 -72 73 -74 71 -2
-3 16 -38 40 -78 65 -111 66 -101 -13 -179 -38 -39 -74 -70 -80 -70 -5 0 -10
-4 -10 -10 0 -5 9 -10 19 -10 11 0 22 -4 25 -8 7 -12 -110 -32 -189 -32 -83 0
-197 19 -189 31 3 5 14 9 25 9 24 0 25 17 1 24 -21 7 -106 87 -128 121 -16 24
-15 28 35 114 28 49 51 92 51 97 0 4 -35 -29 -77 -74 l-78 -82 -59 24 c-32 14
-76 39 -97 55 -21 17 -40 31 -43 31 -3 0 -3 -15 1 -32 8 -46 -8 -28 -50 57
-36 70 -60 150 -72 238 -6 46 7 67 18 27 6 -25 27 -26 27 -1 0 23 65 155 86
172 12 10 33 8 112 -9 53 -11 99 -19 101 -17 2 3 -40 25 -93 49 l-96 45 0 38
c0 34 15 103 36 173 8 25 7 25 -19 7 -38 -24 -41 -21 -16 14 35 49 148 137
224 174 85 42 97 43 62 7z m-1068 -942 c4 0 14 -18 21 -40 7 -22 16 -40 20
-40 3 0 11 -15 18 -34 7 -18 21 -41 32 -51 11 -10 20 -23 20 -29 1 -6 14 -26
30 -45 16 -19 26 -39 23 -45 -3 -6 -2 -8 2 -3 11 9 76 -53 69 -65 -3 -5 -2 -7
3 -6 17 5 54 -24 49 -38 -3 -9 -1 -12 5 -9 5 4 29 -8 52 -27 23 -18 54 -40 69
-47 15 -8 24 -19 21 -24 -4 -6 0 -8 11 -4 10 4 32 -3 54 -16 20 -12 63 -31 95
-41 67 -23 83 -37 68 -63 -8 -15 -38 -108 -47 -148 -4 -20 -46 -151 -54 -170
-17 -41 -23 -60 -22 -68 1 -4 -5 -24 -13 -45 -9 -20 -16 -38 -16 -39 2 -13
-13 -63 -18 -63 -4 0 -7 -8 -8 -17 -2 -25 -4 -31 -49 -170 -37 -117 -40 -123
-66 -123 -15 0 -30 5 -33 10 -4 6 -10 8 -14 6 -12 -8 -166 59 -164 71 1 6 -6
9 -15 6 -21 -5 -208 92 -205 106 2 6 -5 7 -14 4 -12 -5 -14 -3 -8 7 5 8 4 11
-3 7 -14 -9 -43 3 -36 14 3 5 -2 9 -11 9 -9 0 -28 12 -42 28 -15 15 -23 20
-18 12 5 -8 -4 -3 -20 13 -15 15 -32 27 -37 27 -5 0 -6 5 -2 12 4 6 3 8 -4 5
-14 -10 -167 120 -167 142 0 13 -17 31 -25 26 -8 -5 -109 98 -137 142 -12 18
-13 27 -4 36 6 6 11 16 11 22 0 5 -5 2 -11 -7 -14 -26 -32 -22 -24 5 4 14 3
18 -3 9 -7 -10 -15 -4 -36 22 -15 20 -23 36 -19 36 4 0 3 4 -3 8 -16 10 -86
122 -77 122 4 0 1 6 -8 13 -9 7 -16 14 -17 17 -2 15 -23 59 -41 84 -10 16 -17
35 -14 42 3 8 0 14 -6 14 -6 0 -10 12 -9 26 2 19 13 31 40 45 20 10 46 19 58
19 11 0 20 4 20 9 0 12 57 34 69 26 6 -3 14 0 17 9 3 8 12 17 20 20 10 4 12 2
8 -5 -4 -7 -1 -10 7 -7 8 3 13 10 12 16 -1 5 4 13 13 16 8 3 12 2 9 -4 -3 -6
10 -1 29 11 19 11 41 17 47 13 7 -4 9 -3 6 3 -6 9 151 81 189 87 8 1 19 8 23
14 4 7 16 14 27 16 10 2 41 14 67 25 27 12 55 21 62 21 7 0 15 3 17 8 5 12 72
41 86 36 8 -2 17 -4 21 -4z m2831 -131 c228 -18 421 -36 428 -42 16 -12 9 -83
-23 -252 -56 -291 -183 -577 -359 -810 -117 -155 -390 -415 -435 -415 -10 0
-39 31 -69 73 -49 69 -82 115 -359 492 -68 91 -123 175 -123 185 0 10 30 42
70 74 184 149 315 389 351 646 6 41 15 78 21 81 6 4 27 5 47 3 20 -2 223 -18
451 -35z m-1237 -655 c-2 -7 -11 -14 -19 -16 -11 -2 -10 -6 5 -15 15 -9 22
-10 27 -1 5 7 3 8 -6 3 -10 -6 -11 -4 -6 11 5 10 9 25 9 32 0 6 4 12 8 12 15
0 57 -53 53 -65 -3 -6 3 -18 13 -26 17 -13 17 -13 3 5 -8 11 -10 17 -3 13 20
-12 85 -126 78 -137 -4 -6 1 -7 11 -3 14 5 15 3 4 -18 -13 -23 -12 -23 5 -9
17 14 18 13 12 -3 -4 -10 -3 -16 3 -12 5 3 14 -5 21 -17 6 -13 21 -34 33 -47
11 -13 15 -21 7 -16 -9 5 -12 3 -9 -6 3 -8 10 -13 15 -12 6 1 16 -9 23 -22 7
-14 17 -25 22 -25 4 0 8 -7 8 -15 0 -8 5 -15 11 -15 6 0 9 -6 6 -14 -3 -8 0
-17 8 -20 8 -3 22 -20 31 -38 9 -18 22 -36 28 -40 6 -4 8 -8 4 -8 -4 0 6 -14
22 -32 16 -17 34 -45 40 -62 7 -17 16 -40 21 -51 8 -17 8 -16 3 5 -4 19 -3 22
5 10 6 -8 11 -23 11 -33 0 -10 5 -15 10 -12 6 3 10 -3 10 -14 0 -14 -16 -29
-47 -48 -27 -15 -50 -30 -53 -34 -9 -12 -99 -59 -113 -59 -8 0 -25 -8 -38 -19
-13 -10 -30 -16 -36 -14 -7 3 -13 0 -13 -5 0 -6 -9 -8 -20 -5 -11 3 -20 1 -20
-5 0 -5 -18 -19 -40 -30 -22 -10 -37 -15 -34 -11 3 5 0 9 -6 9 -6 0 -13 -7
-16 -15 -4 -8 -10 -12 -15 -9 -5 3 -25 -4 -44 -15 -22 -13 -63 -23 -110 -27
-43 -4 -80 -12 -86 -20 -6 -8 -27 -14 -46 -14 -19 0 -44 -5 -55 -11 -13 -7
-105 -13 -242 -15 -148 -2 -214 0 -201 7 16 7 14 8 -10 4 -16 -3 -38 -8 -47
-11 -10 -3 -18 -1 -18 4 0 5 -20 7 -46 4 -33 -3 -45 -2 -40 6 4 7 -5 9 -29 5
-20 -3 -46 -1 -58 4 -41 18 -92 35 -117 37 -14 2 -28 4 -32 4 -11 3 -10 40 2
47 5 3 7 12 3 20 -3 9 2 30 11 49 9 19 14 41 10 49 -3 8 1 21 9 28 7 8 12 19
10 26 -2 6 3 28 12 50 9 21 18 50 20 65 3 21 22 93 30 118 1 3 6 20 10 38 4
17 10 32 14 32 4 0 7 19 8 41 1 23 9 49 18 59 13 14 33 104 35 155 0 6 5 3 10
-5 7 -11 8 -5 3 19 -4 22 -3 32 4 28 6 -4 9 3 8 16 -2 13 3 31 11 41 11 16 16
17 29 6 9 -7 15 -8 15 -2 0 11 38 4 57 -10 34 -27 409 -16 437 12 5 5 19 10
31 10 11 0 58 16 105 35 86 36 106 42 80 25 -9 -6 -10 -10 -3 -10 7 0 17 9 23
20 6 11 17 20 25 20 8 0 26 11 42 24 27 24 47 18 36 -10z"/>
<path d="M8250 6029 c-203 -34 -332 -223 -300 -439 13 -93 46 -165 102 -226
139 -151 389 -145 539 13 60 63 86 117 98 204 38 280 -170 493 -439 448z"/>
<path d="M12227 6060 c-133 -34 -224 -146 -245 -302 -32 -249 106 -439 323
-440 237 -1 399 194 364 439 -26 187 -143 298 -324 308 -44 2 -97 0 -118 -5z"/>
<path d="M14148 6029 c-224 -33 -356 -261 -290 -501 67 -241 298 -341 529
-228 72 36 134 100 172 180 23 49 26 67 26 165 0 100 -3 116 -29 172 -30 66
-105 147 -165 177 -30 16 -153 47 -176 45 -5 -1 -36 -5 -67 -10z"/>
<path d="M3099 5940 c-68 -50 -134 -98 -147 -108 l-22 -17 57 -175 58 -175
189 0 190 0 54 168 c29 93 51 174 49 181 -6 16 -277 216 -293 216 -5 0 -66
-41 -135 -90z"/>
</g>
</svg>
